<svg width="20" height="20" viewBox="0 0 20 20" fill="none" xmlns="http://www.w3.org/2000/svg">
<g clip-path="url(#clip0_1004_3143)">
<path d="M1.66699 15C1.66699 13.7163 1.66699 13.0744 1.95593 12.6029C2.11761 12.3391 2.33944 12.1172 2.60327 11.9556C3.07478 11.6666 3.71663 11.6666 5.00033 11.6666C6.28402 11.6666 6.92587 11.6666 7.39738 11.9556C7.66122 12.1172 7.88304 12.3391 8.04472 12.6029C8.33366 13.0744 8.33366 13.7163 8.33366 15C8.33366 16.2837 8.33366 16.9255 8.04472 17.397C7.88304 17.6608 7.66122 17.8827 7.39738 18.0444C6.92587 18.3333 6.28402 18.3333 5.00033 18.3333C3.71663 18.3333 3.07478 18.3333 2.60327 18.0444C2.33944 17.8827 2.11761 17.6608 1.95593 17.397C1.66699 16.9255 1.66699 16.2837 1.66699 15Z" stroke="#6C6C6C" stroke-width="1.5"/>
<path d="M11.667 15C11.667 13.7163 11.667 13.0744 11.9559 12.6029C12.1176 12.3391 12.3394 12.1172 12.6033 11.9556C13.0748 11.6666 13.7166 11.6666 15.0003 11.6666C16.284 11.6666 16.9259 11.6666 17.3974 11.9556C17.6612 12.1172 17.883 12.3391 18.0447 12.6029C18.3337 13.0744 18.3337 13.7163 18.3337 15C18.3337 16.2837 18.3337 16.9255 18.0447 17.397C17.883 17.6608 17.6612 17.8827 17.3974 18.0444C16.9259 18.3333 16.284 18.3333 15.0003 18.3333C13.7166 18.3333 13.0748 18.3333 12.6033 18.0444C12.3394 17.8827 12.1176 17.6608 11.9559 17.397C11.667 16.9255 11.667 16.2837 11.667 15Z" stroke="#6C6C6C" stroke-width="1.5"/>
<path d="M1.66699 4.99996C1.66699 3.71626 1.66699 3.07441 1.95593 2.6029C2.11761 2.33907 2.33944 2.11724 2.60327 1.95557C3.07478 1.66663 3.71663 1.66663 5.00033 1.66663C6.28402 1.66663 6.92587 1.66663 7.39738 1.95557C7.66122 2.11724 7.88304 2.33907 8.04472 2.6029C8.33366 3.07441 8.33366 3.71626 8.33366 4.99996C8.33366 6.28366 8.33366 6.92551 8.04472 7.39701C7.88304 7.66085 7.66122 7.88267 7.39738 8.04435C6.92587 8.33329 6.28402 8.33329 5.00033 8.33329C3.71663 8.33329 3.07478 8.33329 2.60327 8.04435C2.33944 7.88267 2.11761 7.66085 1.95593 7.39701C1.66699 6.92551 1.66699 6.28366 1.66699 4.99996Z" stroke="#6C6C6C" stroke-width="1.5"/>
<path d="M11.667 4.99996C11.667 3.71626 11.667 3.07441 11.9559 2.6029C12.1176 2.33907 12.3394 2.11724 12.6033 1.95557C13.0748 1.66663 13.7166 1.66663 15.0003 1.66663C16.284 1.66663 16.9259 1.66663 17.3974 1.95557C17.6612 2.11724 17.883 2.33907 18.0447 2.6029C18.3337 3.07441 18.3337 3.71626 18.3337 4.99996C18.3337 6.28366 18.3337 6.92551 18.0447 7.39701C17.883 7.66085 17.6612 7.88267 17.3974 8.04435C16.9259 8.33329 16.284 8.33329 15.0003 8.33329C13.7166 8.33329 13.0748 8.33329 12.6033 8.04435C12.3394 7.88267 12.1176 7.66085 11.9559 7.39701C11.667 6.92551 11.667 6.28366 11.667 4.99996Z" stroke="#6C6C6C" stroke-width="1.5"/>
</g>
<defs>
<clipPath id="clip0_1004_3143">
<rect width="20" height="20" fill="white"/>
</clipPath>
</defs>
</svg>
