<svg width="18" height="18" viewBox="0 0 18 18" fill="none" xmlns="http://www.w3.org/2000/svg">
<path d="M0.75 0.75L1.8343 0.75C2.82227 0.75 3.31625 0.75 3.65117 1.05952C3.98609 1.36904 4.05138 1.88589 4.18195 2.91959L5.12144 10.3572C5.29553 11.7355 5.38258 12.4246 5.82915 12.8373C6.27571 13.25 6.93435 13.25 8.25163 13.25L16.5833 13.25" stroke="#6C6C6C" stroke-width="1.5" stroke-linecap="round"/>
<circle cx="7.83301" cy="15.3334" r="1.25" stroke="#6C6C6C" stroke-width="1.5"/>
<circle cx="13.667" cy="15.3334" r="1.25" stroke="#6C6C6C" stroke-width="1.5"/>
<path d="M13.25 10.7501L11.5833 10.7501C10.012 10.7501 9.22631 10.7501 8.73816 10.2619C8.25 9.77377 8.25 8.9881 8.25 7.41675L8.25 5.75008C8.25 4.17873 8.25 3.39306 8.73816 2.9049C9.22631 2.41675 10.012 2.41675 11.5833 2.41675L13.25 2.41675C14.8213 2.41675 15.607 2.41675 16.0952 2.9049C16.5833 3.39306 16.5833 4.17873 16.5833 5.75008V7.41675C16.5833 8.9881 16.5833 9.77377 16.0952 10.2619C15.607 10.7501 14.8213 10.7501 13.25 10.7501Z" stroke="#6C6C6C" stroke-width="1.5" stroke-linecap="round" stroke-linejoin="round"/>
<path d="M12 4.91675L12.8333 4.91675" stroke="#6C6C6C" stroke-width="1.5" stroke-linecap="round" stroke-linejoin="round"/>
</svg>
