<svg width="30" height="30" viewBox="0 0 30 30" fill="none" xmlns="http://www.w3.org/2000/svg">
<path d="M3.125 15C3.125 9.40207 3.125 6.60311 4.86405 4.86405C6.60311 3.125 9.40207 3.125 15 3.125C20.5979 3.125 23.3969 3.125 25.1359 4.86405C26.875 6.60311 26.875 9.40207 26.875 15C26.875 20.5979 26.875 23.3969 25.1359 25.1359C23.3969 26.875 20.5979 26.875 15 26.875C9.40207 26.875 6.60311 26.875 4.86405 25.1359C3.125 23.3969 3.125 20.5979 3.125 15Z" stroke="#08174D" stroke-width="1.5" stroke-linejoin="round"/>
<path d="M21.25 10.75C21.6642 10.75 22 10.4142 22 10C22 9.58579 21.6642 9.25 21.25 9.25V10V10.75ZM20 10V10.75V10ZM14.25 26.875C14.25 27.2892 14.5858 27.625 15 27.625C15.4142 27.625 15.75 27.2892 15.75 26.875H15H14.25ZM12.5 16.75C12.0858 16.75 11.75 17.0858 11.75 17.5C11.75 17.9142 12.0858 18.25 12.5 18.25V17.5V16.75ZM18.75 18.25C19.1642 18.25 19.5 17.9142 19.5 17.5C19.5 17.0858 19.1642 16.75 18.75 16.75V17.5V18.25ZM21.25 10V9.25H20V10V10.75H21.25V10ZM15 15H14.25V26.875H15H15.75V15H15ZM20 10V9.25C18.8427 9.25 17.8993 9.24841 17.1569 9.34822C16.3929 9.45093 15.7306 9.67321 15.2019 10.2019L15.7322 10.7322L16.2626 11.2626C16.4661 11.059 16.7591 10.9152 17.3568 10.8348C17.9759 10.7516 18.8003 10.75 20 10.75V10ZM15 15H15.75C15.75 13.8003 15.7516 12.9759 15.8348 12.3568C15.9152 11.7591 16.059 11.4661 16.2626 11.2626L15.7322 10.7322L15.2019 10.2019C14.6732 10.7306 14.4509 11.3929 14.3482 12.1569C14.2484 12.8993 14.25 13.8427 14.25 15H15ZM12.5 17.5V18.25H18.75V17.5V16.75H12.5V17.5Z" fill="#08174D"/>
</svg>
