<svg width="30" height="30" viewBox="0 0 30 30" fill="none" xmlns="http://www.w3.org/2000/svg">
<path d="M3.125 15C3.125 9.40207 3.125 6.60311 4.86405 4.86405C6.60311 3.125 9.40207 3.125 15 3.125C20.5979 3.125 23.3969 3.125 25.1359 4.86405C26.875 6.60311 26.875 9.40207 26.875 15C26.875 20.5979 26.875 23.3969 25.1359 25.1359C23.3969 26.875 20.5979 26.875 15 26.875C9.40207 26.875 6.60311 26.875 4.86405 25.1359C3.125 23.3969 3.125 20.5979 3.125 15Z" fill="#D9D9D9" stroke="#08174D" stroke-width="1.5" stroke-linejoin="round"/>
<path d="M20.625 15C20.625 18.1066 18.1066 20.625 15 20.625C11.8934 20.625 9.375 18.1066 9.375 15C9.375 11.8934 11.8934 9.375 15 9.375C18.1066 9.375 20.625 11.8934 20.625 15Z" stroke="#08174D" stroke-width="1.5"/>
<path d="M21.8848 8.125L21.8735 8.125" stroke="#08174D" stroke-width="2" stroke-linecap="round" stroke-linejoin="round"/>
</svg>
