<svg width="20" height="20" viewBox="0 0 20 20" fill="none" xmlns="http://www.w3.org/2000/svg">
<path d="M16.2497 14.5833C16.2497 15.7339 15.3169 16.6667 14.1663 16.6667C13.0157 16.6667 12.083 15.7339 12.083 14.5833C12.083 13.4327 13.0157 12.5 14.1663 12.5C15.3169 12.5 16.2497 13.4327 16.2497 14.5833Z" stroke="#6C6C6C" stroke-width="1.5"/>
<path d="M7.91667 14.5833C7.91667 15.7339 6.98393 16.6667 5.83333 16.6667C4.68274 16.6667 3.75 15.7339 3.75 14.5833C3.75 13.4327 4.68274 12.5 5.83333 12.5C6.98393 12.5 7.91667 13.4327 7.91667 14.5833Z" stroke="#6C6C6C" stroke-width="1.5"/>
<path d="M12.0837 14.5834H7.91699M16.2503 14.5834H16.8863C17.0696 14.5834 17.1613 14.5834 17.2383 14.5738C17.806 14.503 18.2533 14.0558 18.3241 13.488C18.3337 13.411 18.3337 13.3193 18.3337 13.136V10.8334C18.3337 7.84183 15.9085 5.41671 12.917 5.41671M12.5003 12.9167L12.5003 5.83337C12.5003 4.65486 12.5003 4.06561 12.1342 3.69949C11.7681 3.33337 11.1788 3.33337 10.0003 3.33337L4.16699 3.33337C2.98848 3.33337 2.39923 3.33337 2.03311 3.69949C1.66699 4.06561 1.66699 4.65486 1.66699 5.83337L1.66699 12.5C1.66699 13.2789 1.66699 13.6683 1.83446 13.9584C1.94417 14.1484 2.10197 14.3062 2.29199 14.4159C2.58206 14.5834 2.97148 14.5834 3.75033 14.5834" stroke="#6C6C6C" stroke-width="1.5" stroke-linecap="round" stroke-linejoin="round"/>
<path d="M5.41699 5.83337L5.41699 9.1665M8.75033 5.83337V9.1665" stroke="#6C6C6C" stroke-width="1.5" stroke-linecap="round" stroke-linejoin="round"/>
</svg>
