<svg width="20" height="20" viewBox="0 0 20 20" fill="none" xmlns="http://www.w3.org/2000/svg">
<g clip-path="url(#clip0_1004_3177)">
<path d="M11.44 2.87011L12.9065 5.82736C13.1065 6.23902 13.6398 6.63388 14.0897 6.70949L16.7478 7.15475C18.4476 7.4404 18.8475 8.68379 17.6227 9.91037L15.5562 11.9939C15.2063 12.3467 15.0146 13.0272 15.1229 13.5145L15.7145 16.0937C16.1812 18.1352 15.1063 18.9249 13.3148 17.858L10.8234 16.3709C10.3735 16.1021 9.63189 16.1021 9.17361 16.3709L6.68222 17.858C4.89908 18.9249 3.81586 18.1268 4.28248 16.0937L4.87408 13.5145C4.9824 13.0272 4.79076 12.3467 4.4408 11.9939L2.37436 9.91037C1.15783 8.68379 1.54945 7.4404 3.24926 7.15475L5.9073 6.70949C6.34892 6.63388 6.88219 6.23902 7.08217 5.82736L8.54868 2.87011C9.34859 1.26547 10.6484 1.26547 11.44 2.87011Z" stroke="#6C6C6C" stroke-width="1.5" stroke-linecap="round" stroke-linejoin="round"/>
</g>
<defs>
<clipPath id="clip0_1004_3177">
<rect width="20" height="20" fill="white"/>
</clipPath>
</defs>
</svg>
