<svg width="30" height="30" viewBox="0 0 30 30" fill="none" xmlns="http://www.w3.org/2000/svg">
<path d="M3.125 15C3.125 9.40207 3.125 6.60311 4.86405 4.86405C6.60311 3.125 9.40207 3.125 15 3.125C20.5979 3.125 23.3969 3.125 25.1359 4.86405C26.875 6.60311 26.875 9.40207 26.875 15C26.875 20.5979 26.875 23.3969 25.1359 25.1359C23.3969 26.875 20.5979 26.875 15 26.875C9.40207 26.875 6.60311 26.875 4.86405 25.1359C3.125 23.3969 3.125 20.5979 3.125 15Z" stroke="#08174D" stroke-width="1.5" stroke-linejoin="round"/>
<path d="M13.0188 14.5367C13.4288 14.5954 13.8088 14.3105 13.8674 13.9005C13.9261 13.4905 13.6412 13.1105 13.2312 13.0519L13.125 13.7943L13.0188 14.5367ZM21.875 12.625C22.2892 12.625 22.625 12.2892 22.625 11.875C22.625 11.4608 22.2892 11.125 21.875 11.125V11.875V12.625ZM17.625 7.5C17.625 7.08579 17.2892 6.75 16.875 6.75C16.4608 6.75 16.125 7.08579 16.125 7.5H16.875H17.625ZM16.875 18.125H16.125C16.125 20.127 14.502 21.75 12.5 21.75V22.5V23.25C15.3305 23.25 17.625 20.9555 17.625 18.125H16.875ZM12.5 22.5V21.75C10.498 21.75 8.875 20.127 8.875 18.125H8.125H7.375C7.375 20.9555 9.66954 23.25 12.5 23.25V22.5ZM8.125 18.125H8.875C8.875 16.123 10.498 14.5 12.5 14.5V13.75V13C9.66954 13 7.375 15.2945 7.375 18.125H8.125ZM12.5 13.75V14.5C12.6766 14.5 12.8497 14.5126 13.0188 14.5367L13.125 13.7943L13.2312 13.0519C12.992 13.0176 12.7478 13 12.5 13V13.75ZM21.875 11.875V11.125C20.8588 11.125 19.7757 10.7079 18.9497 10.0179C18.1242 9.32856 17.625 8.42997 17.625 7.5H16.875H16.125C16.125 8.98627 16.9176 10.2752 17.9881 11.1692C19.058 12.0628 20.4749 12.625 21.875 12.625V11.875ZM16.875 7.5H16.125V18.125H16.875H17.625V7.5H16.875Z" fill="#08174D"/>
</svg>
